<svg width="164" height="64" viewBox="0 0 164 64" fill="none" xmlns="http://www.w3.org/2000/svg">
<rect x="1" y="0.99707" width="162" height="62" rx="30" stroke="#789384" stroke-width="2"/>
<path d="M40.756 36.9971H43.132L44.356 29.5991L47.434 36.9971H48.226L51.448 29.5991L52.528 36.9971H54.904L52.888 24.9911H51.196L47.866 32.6231L44.68 24.9911H42.988L40.756 36.9971ZM62.3401 34.4951C61.9801 35.1251 61.3681 35.5211 60.5221 35.5211C59.6761 35.5211 59.1901 35.1251 58.9561 34.7831C58.6861 34.4411 58.5781 33.9551 58.5781 33.4691H64.4101V33.2891C64.4101 32.4071 64.3021 31.2551 63.4741 30.2291C62.9161 29.5811 62.0161 28.9511 60.4321 28.9511C59.4961 28.9511 58.4161 29.1671 57.4981 30.0491C56.9401 30.6071 56.3101 31.5431 56.3101 33.1091C56.3101 34.3331 56.6701 35.3411 57.5341 36.1511C58.3081 36.8891 59.2441 37.2491 60.5221 37.2491C63.2581 37.2491 64.1221 35.3951 64.3561 34.8191L62.3401 34.4951ZM58.6501 32.0651C58.8481 31.0031 59.6761 30.4991 60.4861 30.4991C61.2961 30.4991 62.1421 30.9851 62.3401 32.0651H58.6501ZM66.1104 36.9971H68.3064V33.8291H71.3664V36.9971H73.5624V29.2031H71.3664V31.9571H68.3064V29.2031H66.1104V36.9971ZM77.8513 32.1371V29.2031H75.6553V36.9971H77.8513V34.0091H78.9133C79.0753 35.0711 79.6153 35.7371 80.0293 36.1511C80.6773 36.7811 81.6493 37.2491 83.0713 37.2491C84.7093 37.2491 85.6633 36.6011 86.1673 36.1511C86.9413 35.4491 87.4633 34.3511 87.4633 33.1091C87.4633 31.8311 86.9413 30.7511 86.1673 30.0491C85.5013 29.4191 84.5113 28.9511 83.0713 28.9511C81.8473 28.9511 80.8393 29.2751 80.0293 30.0491C79.5433 30.4991 79.0753 31.1471 78.9133 32.1371H77.8513ZM83.0713 35.3051C81.8293 35.3051 80.9473 34.3331 80.9473 33.1091C80.9473 31.8671 81.8293 30.8951 83.0713 30.8951C84.3133 30.8951 85.1953 31.8671 85.1953 33.1091C85.1953 34.3331 84.3133 35.3051 83.0713 35.3051Z" fill="white"/>
<path d="M124 27.9971C124 27.4448 123.552 26.9971 123 26.9971H105C104.448 26.9971 104 27.4448 104 27.9971C104 28.5494 104.448 28.9971 105 28.9971H123C123.552 28.9971 124 28.5494 124 27.9971Z" fill="white"/>
<path d="M124 35.9971C124 35.4448 123.552 34.9971 123 34.9971H105C104.448 34.9971 104 35.4448 104 35.9971C104 36.5494 104.448 36.9971 105 36.9971H123C123.552 36.9971 124 36.5494 124 35.9971Z" fill="white"/>
</svg>
